<?xml version="1.0" standalone="no"?><!DOCTYPE svg PUBLIC "-//W3C//DTD SVG 1.1//EN" "http://www.w3.org/Graphics/SVG/1.1/DTD/svg11.dtd"><svg t="1626676941295" class="icon" viewBox="0 0 1024 1024" version="1.1" xmlns="http://www.w3.org/2000/svg" p-id="1692" xmlns:xlink="http://www.w3.org/1999/xlink" width="200" height="200"><defs><style type="text/css"></style></defs><path d="M862.3 189.8H127.1c-27.4 0-49.6 22.3-49.6 49.6v495.5c0 27.4 22.3 49.6 49.6 49.6h735.3c27.4 0 49.6-22.3 49.6-49.6V239.4c0-27.3-22.3-49.6-49.7-49.6zM853.6 592c0 19.9-16.2 36.1-36.1 36.1H171.9c-19.9 0-36.1-16.2-36.1-36.1V296.9c0-19.9 16.2-36.1 36.1-36.1h645.7c19.9 0 36.1 16.2 36.1 36.1V592z" fill="#717071" p-id="1693"></path><path d="M910.5 847.7H175.2c-27.4 0-49.6-22.3-49.6-49.6V302.6c0-27.4 22.3-49.6 49.6-49.6h735.3c27.4 0 49.6 22.3 49.6 49.6v495.5c0 27.4-22.3 49.6-49.6 49.6z" fill="#A7B8C6" p-id="1694"></path><path d="M170 446.6a153.8 153.8 0 1 0 307.6 0 153.8 153.8 0 1 0-307.6 0zM518.7 446.6a146.9 146.9 0 1 0 293.8 0 146.9 146.9 0 1 0-293.8 0z" fill="#302E2F" p-id="1695"></path><path d="M863.9 208H151.4c-26.5 0-48.1 21.6-48.1 48.1v480.4c0 26.5 21.6 48.1 48.1 48.1h712.5c26.5 0 48.1-21.6 48.1-48.1V256.1c0-26.5-21.6-48.1-48.1-48.1z m-8.5 389.9c0 19.2-15.7 35-35 35H194.8c-19.2 0-35-15.7-35-35V311.7c0-19.2 15.7-35 35-35h625.6c19.2 0 35 15.7 35 35v286.2z" fill="#5D5F5E" p-id="1696"></path><path d="M817.5 260.8H171.9c-19.9 0-36.1 16.2-36.1 36.1V592c0 19.9 16.2 36.1 36.1 36.1h645.7c19.9 0 36.1-16.2 36.1-36.1V296.9c-0.1-19.9-16.3-36.1-36.2-36.1z m-61.8 243.7c0 11.7-9.5 21.1-21.1 21.1H254.8c-11.7 0-21.1-9.5-21.1-21.1V384.4c0-11.7 9.5-21.1 21.1-21.1h479.7c11.7 0 21.1 9.5 21.1 21.1v120.1z" fill="#FFFFFF" p-id="1697"></path><path d="M734.6 363.2H254.8c-11.7 0-21.1 9.5-21.1 21.1v120.1c0 11.7 9.5 21.1 21.1 21.1h479.7c11.7 0 21.1-9.5 21.1-21.1v-120c0.1-11.7-9.4-21.2-21-21.2z m-69 132H333.9v-97.8h331.7v97.8z" fill="#302E2F" p-id="1698"></path><path d="M670.2 499.7H329.4V392.9h340.7v106.8z m-331.8-9h322.7V402H338.4v88.7z" fill="#888888" p-id="1699"></path><path d="M675.3 689.5c-6.1-10.7-17.5-17.3-29.8-17.3H343.9c-12.3 0-23.7 6.6-29.8 17.3l-61.8 108.6h484.8l-61.8-108.6z" fill="#3E3A39" p-id="1700"></path><path d="M367.6 725.9a10.9 10.9 0 1 0 21.8 0 10.9 10.9 0 1 0-21.8 0zM600 725.9a10.9 10.9 0 1 0 21.8 0 10.9 10.9 0 1 0-21.8 0z" fill="#FFFFFF" p-id="1701"></path><path d="M135.8 305.2h717.9v29.1H135.8z" fill="#B6C57F" p-id="1702"></path><path d="M862.3 798.1H127.1c-34.8 0-63.2-28.3-63.2-63.2V239.4c0-34.8 28.3-63.2 63.2-63.2h735.3c34.8 0 63.2 28.3 63.2 63.2v495.5c-0.1 34.9-28.4 63.2-63.3 63.2zM127.1 203.4c-19.9 0-36.1 16.2-36.1 36.1V735c0 19.9 16.2 36.1 36.1 36.1h735.3c19.9 0 36.1-16.2 36.1-36.1V239.4c0-19.9-16.2-36.1-36.1-36.1H127.1z" fill="#3E3A39" p-id="1703"></path><path d="M135.8 557.9h717.9V587H135.8z" fill="#7FB1C5" p-id="1704"></path><path d="M265.7 446.6a58.1 58.1 0 1 0 116.2 0 58.1 58.1 0 1 0-116.2 0zM607.5 446.6a58.1 58.1 0 1 0 116.2 0 58.1 58.1 0 1 0-116.2 0z" fill="#FFFFFF" p-id="1705"></path><path d="M662.4 411.8h5.8c0.8 0 1.4-0.6 1.4-1.4v-22.7c0-0.8-0.6-1.4-1.4-1.4h-5.8c-0.8 0-1.4 0.6-1.4 1.4v22.7c-0.1 0.8 0.6 1.4 1.4 1.4z m-28.7 19.9l2.9-5c0.4-0.7 0.2-1.6-0.5-2l-19.7-11.3c-0.7-0.4-1.6-0.2-2 0.5l-2.9 5c-0.4 0.7-0.2 1.6 0.5 2l19.7 11.3c0.7 0.4 1.6 0.2 2-0.5z m2.9 34.8l-2.9-5c-0.4-0.7-1.3-0.9-2-0.5L612 472.3c-0.7 0.4-0.9 1.3-0.5 2l2.9 5c0.4 0.7 1.3 0.9 2 0.5l19.7-11.3c0.6-0.5 0.9-1.3 0.5-2z m31.5 14.9h-5.8c-0.8 0-1.4 0.6-1.4 1.4v22.7c0 0.8 0.6 1.4 1.4 1.4h5.8c0.8 0 1.4-0.6 1.4-1.4v-22.7c0.1-0.8-0.6-1.4-1.4-1.4z m28.7-19.9l-2.9 5c-0.4 0.7-0.2 1.6 0.5 2l19.7 11.3c0.7 0.4 1.6 0.2 2-0.5l2.9-5c0.4-0.7 0.2-1.6-0.5-2L698.8 461c-0.7-0.5-1.6-0.2-2 0.5z m-2.9-34.8l2.9 5c0.4 0.7 1.3 0.9 2 0.5l19.7-11.3c0.7-0.4 0.9-1.3 0.5-2l-2.9-5c-0.4-0.7-1.3-0.9-2-0.5l-19.7 11.3c-0.6 0.4-0.9 1.3-0.5 2zM320.9 411.8h5.8c0.8 0 1.4-0.6 1.4-1.4v-22.7c0-0.8-0.6-1.4-1.4-1.4h-5.8c-0.8 0-1.4 0.6-1.4 1.4v22.7c-0.1 0.8 0.6 1.4 1.4 1.4z m-28.7 19.9l2.9-5c0.4-0.7 0.2-1.6-0.5-2l-19.7-11.3c-0.7-0.4-1.6-0.2-2 0.5l-2.9 5c-0.4 0.7-0.2 1.6 0.5 2l19.7 11.3c0.7 0.4 1.6 0.2 2-0.5z m2.9 34.8l-2.9-5c-0.4-0.7-1.3-0.9-2-0.5l-19.7 11.3c-0.7 0.4-0.9 1.3-0.5 2l2.9 5c0.4 0.7 1.3 0.9 2 0.5l19.7-11.3c0.7-0.5 0.9-1.3 0.5-2z m31.6 14.9h-5.8c-0.8 0-1.4 0.6-1.4 1.4v22.7c0 0.8 0.6 1.4 1.4 1.4h5.8c0.8 0 1.4-0.6 1.4-1.4v-22.7c0-0.8-0.7-1.4-1.4-1.4z m28.6-19.9l-2.9 5c-0.4 0.7-0.2 1.6 0.5 2l19.7 11.3c0.7 0.4 1.6 0.2 2-0.5l2.9-5c0.4-0.7 0.2-1.6-0.5-2L357.3 461c-0.7-0.5-1.6-0.2-2 0.5z m-2.9-34.8l2.9 5c0.4 0.7 1.3 0.9 2 0.5l19.7-11.3c0.7-0.4 0.9-1.3 0.5-2l-2.9-5c-0.4-0.7-1.3-0.9-2-0.5L353 424.7c-0.7 0.4-1 1.3-0.6 2z" fill="#3E3A39" p-id="1706"></path><path d="M323.8 510.7c-35.4 0-64.2-28.8-64.2-64.2s28.8-64.2 64.2-64.2 64.2 28.8 64.2 64.2-28.9 64.2-64.2 64.2z m0-116.3c-28.7 0-52.1 23.4-52.1 52.1 0 28.7 23.4 52.1 52.1 52.1 28.7 0 52.1-23.4 52.1-52.1 0-28.7-23.4-52.1-52.1-52.1z m341.8 116.3c-35.4 0-64.2-28.8-64.2-64.2s28.8-64.2 64.2-64.2 64.2 28.8 64.2 64.2-28.8 64.2-64.2 64.2z m0-116.3c-28.7 0-52.1 23.4-52.1 52.1 0 28.7 23.4 52.1 52.1 52.1s52.1-23.4 52.1-52.1c0.1-28.7-23.3-52.1-52.1-52.1z" fill="#888888" p-id="1707"></path></svg>