<?xml version="1.0" standalone="no"?><!DOCTYPE svg PUBLIC "-//W3C//DTD SVG 1.1//EN" "http://www.w3.org/Graphics/SVG/1.1/DTD/svg11.dtd"><svg t="1627610237575" class="icon" viewBox="0 0 1204 1024" version="1.1" xmlns="http://www.w3.org/2000/svg" p-id="1514" xmlns:xlink="http://www.w3.org/1999/xlink" width="235.15625" height="200"><defs><style type="text/css">@font-face { font-family: feedback-iconfont; src: url("//at.alicdn.com/t/font_1031158_1uhr8ri0pk5.eot?#iefix") format("embedded-opentype"), url("//at.alicdn.com/t/font_1031158_1uhr8ri0pk5.woff2") format("woff2"), url("//at.alicdn.com/t/font_1031158_1uhr8ri0pk5.woff") format("woff"), url("//at.alicdn.com/t/font_1031158_1uhr8ri0pk5.ttf") format("truetype"), url("//at.alicdn.com/t/font_1031158_1uhr8ri0pk5.svg#iconfont") format("svg"); }
</style></defs><path d="M919.953569 284.752314h131.423372v733.766274h-131.413333z" fill="#EE661A" p-id="1515"></path><path d="M990.368627 847.450353v-457.98902a66.158431 66.158431 0 0 0-19.516235-46.933333 66.800941 66.800941 0 0 0-47.154196-19.415843H452.025725l-122.588862-136.934902H143.299765c-17.66902 0-34.625255 6.987294-47.11404 19.415843a66.148392 66.148392 0 0 0-19.526274 46.893177v601.168313c0.020078 36.61302 29.846588 66.288941 66.640314 66.298981h919.02996l-71.961098-72.503216z" fill="#EE661A" p-id="1516"></path><path d="M593.387922 153.328941a68.096 68.096 0 0 0-47.866981 19.576471 66.469647 66.469647 0 0 0-19.827451 47.284706v643.845019c0.010039 36.934275 30.318431 66.861176 67.694432 66.871216h510.785254c37.376 0 67.674353-29.936941 67.674353-66.861177v-460.599215L916.48 153.328941H593.387922z" fill="#F2F2F2" p-id="1517"></path><path d="M1171.847529 403.937882l-251.883921-250.608941v184.932392c0.020078 36.984471 29.886745 66.951529 66.730667 66.961569l185.153254-1.28502z" fill="#E3E3E3" p-id="1518"></path><path d="M918.748863 952.289882V487.845647c0-36.582902-29.967059-66.238745-66.931451-66.238745H379.321725L256.170667 284.752314H66.921412C29.95702 284.752314 0 314.398118 0 350.97098v601.318902c0 36.572863 29.95702 66.228706 66.921412 66.238745h918.748863a67.282824 67.282824 0 0 1-47.324863-19.405803 65.867294 65.867294 0 0 1-19.596549-46.832942z" fill="#FCB48B" p-id="1519"></path><path d="M251.883922 658.853647a34.655373 34.655373 0 0 0 59.13098 24.495686 34.585098 34.585098 0 0 0-24.485647-59.090823 34.625255 34.625255 0 0 0-34.635294 34.595137z m324.999529 0a34.655373 34.655373 0 0 0 59.13098 24.495686 34.585098 34.585098 0 0 0-24.495686-59.090823 34.635294 34.635294 0 0 0-34.635294 34.595137zM409.951373 799.48298h-3.543844a8.432941 8.432941 0 0 1-4.015686-11.083294c0-3.995608 19.114667-40.819451 47.525647-42.144627 17.799529 0 34.615216 13.301961 49.28251 41.261176a8.432941 8.432941 0 0 1-14.657255 7.981177c-11.545098-21.724863-23.531922-33.269961-34.193569-32.828236-10.661647 0.431686-29.294431 23.953569-32.858352 31.934746a8.392784 8.392784 0 0 1-7.529412 4.848941v0.030117z" fill="#EE661A" p-id="1520"></path><path d="M1063.785412 131.413333c-6.856784 0-12.408471 5.662118-12.408471 12.629334v74.952784c0.240941 6.796549 5.722353 12.187608 12.408471 12.187608s12.167529-5.391059 12.40847-12.187608v-74.952784c0-3.343059-1.305098-6.555608-3.634196-8.934902a12.288 12.288 0 0 0-8.774274-3.684392z m128.953725 128.13051h-73.637647a12.54902 12.54902 0 0 0-11.414588 12.609255 12.54902 12.54902 0 0 0 11.414588 12.599216h73.637647A12.54902 12.54902 0 0 0 1204.705882 272.112941a12.54902 12.54902 0 0 0-11.966745-12.629333v0.060235z m-27.919059-69.039686c3.172392-3.232627 4.417255-7.93098 3.242667-12.348235a12.679529 12.679529 0 0 0-8.874667-9.035295 12.408471 12.408471 0 0 0-12.137411 3.302902l-51.862589 53.227922a12.950588 12.950588 0 0 0 0 18.080627c4.909176 4.999529 12.850196 4.999529 17.769412 0l51.862588-53.227921z" fill="#E3E3E3" p-id="1521"></path><path d="M371.2 55.125333l35.759686 9.768157-35.759686 9.276235-10.039216 57.253648-9.537255-57.253648-34.022902-9.276235 34.012863-9.768157 9.537255-36.09098 10.039216 36.09098z m104.227137-26.74447l28.360785 7.629804-28.360785 7.228235-7.449098 44.955608-7.850666-45.015843-26.603922-7.208157 26.603922-7.639843L467.978039 0l7.449098 28.380863z" fill="#FCB48B" p-id="1522"></path></svg>