<?xml version="1.0" standalone="no"?><!DOCTYPE svg PUBLIC "-//W3C//DTD SVG 1.1//EN" "http://www.w3.org/Graphics/SVG/1.1/DTD/svg11.dtd"><svg t="1625888263280" class="icon" viewBox="0 0 1024 1024" version="1.1" xmlns="http://www.w3.org/2000/svg" p-id="989" xmlns:xlink="http://www.w3.org/1999/xlink" width="200" height="200"><defs><style type="text/css"></style></defs><path d="M512 0c282.766557 0 512 229.233443 512 512S794.766557 1024 512 1024 0 794.766557 0 512 229.233443 0 512 0z" fill="#E2574C" p-id="990"></path><path d="M20.48 583.68a20.48 20.48 0 0 0 20.48-20.48V614.4a20.48 20.48 0 1 0 40.96 0v51.2a20.48 20.48 0 0 0 40.96 0V614.4a20.48 20.48 0 1 0 40.96 0v102.4a20.48 20.48 0 1 0 40.96 0v-30.72a20.48 20.48 0 0 0 40.96 0v-51.2a20.48 20.48 0 0 0 40.96 0v40.96a20.48 20.48 0 1 0 40.96 0V614.4a20.48 20.48 0 1 0 40.96 0v51.2a20.48 20.48 0 0 0 40.96 0V614.4a20.48 20.48 0 1 0 40.96 0v102.4a20.48 20.48 0 1 0 40.96 0v-30.72a20.48 20.48 0 0 0 40.96 0v-51.2a20.48 20.48 0 0 0 40.96 0v-71.68a20.48 20.48 0 0 0 40.96 0V614.4a20.48 20.48 0 1 0 40.96 0v61.44a20.48 20.48 0 1 0 40.96 0V614.4a20.48 20.48 0 1 0 40.96 0v102.4a20.48 20.48 0 0 0 40.96 0v-30.72a20.48 20.48 0 0 0 40.96 0v-51.2a20.48 20.48 0 0 0 40.96 0v-71.68a20.48 20.48 0 0 0 40.96 0V614.4a20.48 20.48 0 1 0 40.96 0v51.2a20.48 20.48 0 1 0 40.96 0V614.4a20.48 20.48 0 0 0 20.48 20.48 20.122604 20.122604 0 0 0 5.744439-0.9216A513.122384 513.122384 0 0 0 1024 512H0a516.632094 516.632094 0 0 0 4.035765 63.303278 20.3776 20.3776 0 0 0 16.444235 8.376722z" fill="#E67067" p-id="991"></path><path d="M1003.52 389.12a20.48 20.48 0 0 0-20.48 20.48v-51.2a20.48 20.48 0 1 0-40.96 0V409.6a20.48 20.48 0 1 0-40.96 0v51.2a20.48 20.48 0 1 0-40.96 0v-71.68a20.48 20.48 0 1 0-40.96 0v-51.2a20.48 20.48 0 1 0-40.96 0V307.2a20.48 20.48 0 0 0-40.96 0v102.4a20.48 20.48 0 1 0-40.96 0v-51.2a20.48 20.48 0 1 0-40.96 0 20.48 20.48 0 1 0-40.96 0 20.48 20.48 0 1 0-40.96 0v-30.72a20.48 20.48 0 1 0-40.96 0v30.72a20.48 20.48 0 1 0-40.96 0v-30.72a20.48 20.48 0 1 0-40.96 0V409.6a20.48 20.48 0 1 0-40.96 0v-51.2a20.48 20.48 0 1 0-40.96 0V409.6a20.48 20.48 0 1 0-40.96 0v51.2a20.48 20.48 0 1 0-40.96 0v-71.68a20.48 20.48 0 1 0-40.96 0v-51.2a20.48 20.48 0 0 0-40.96 0V307.2a20.48 20.48 0 0 0-40.96 0v102.4a20.48 20.48 0 1 0-40.96 0v-51.2a20.48 20.48 0 1 0-40.96 0V409.6a20.48 20.48 0 1 0-40.96 0v51.2a20.429804 20.429804 0 0 0-36.924235-12.103278A516.5056 516.5056 0 0 0 0 512h1024a513.058133 513.058133 0 0 0-14.735561-121.9584 20.132643 20.132643 0 0 0-5.744439-0.9216z" fill="#E98179" p-id="992"></path><path d="M337.950118 396.922478v208.012549a11.492894 11.492894 0 0 1-14.099075 11.213804 70.798557 70.798557 0 0 0-18.6368-1.93556c-38.040596 1.064157-69.621961 33.852235-69.652078 71.535435-0.040157 39.249318 32.071278 72.346604 71.68 72.346604a73.027263 73.027263 0 0 0 71.649882-61.777318l0.030118-210.1248a28.822588 28.822588 0 0 1 21.995921-27.909019l187.498416-46.441412a29.097663 29.097663 0 0 1 36.239561 28.015435v93.4912a11.52502 11.52502 0 0 1-14.141239 11.243922 71.441067 71.441067 0 0 0-18.596644-1.925522c-38.042604 1.064157-69.621961 34.803953-69.672156 72.4992a71.334651 71.334651 0 0 0 71.68 71.0656 72.884706 72.884706 0 0 0 71.68-61.602635V344.4736c0-37.355922-35.440439-64.766996-72.017318-55.7056l-211.708988 52.418761a57.5488 57.5488 0 0 0-43.9296 55.735717z" fill="#CB4E44" p-id="993"></path><path d="M665.6 624.64V512h-40.96v21.359435a11.523012 11.523012 0 0 1-14.141239 11.243922 71.449098 71.449098 0 0 0-18.596643-1.925522c-38.042604 1.066165-69.621961 34.805961-69.672157 72.4992a70.133961 70.133961 0 0 0 10.24 36.494557V634.88a20.48 20.48 0 1 0 40.96 0v-71.68a20.48 20.48 0 0 0 40.96 0V614.4a20.48 20.48 0 1 0 40.96 0v37.641035A70.103843 70.103843 0 0 0 665.6 624.64zM378.900078 512h-40.96v92.937035a11.484863 11.484863 0 0 1-10.075356 11.3664 20.40571 20.40571 0 1 0 40.759215-1.905443v51.2a20.417757 20.417757 0 0 0 10.24 17.642918z m-51.220078 163.84v-59.514478a11.043137 11.043137 0 0 1-3.828957-0.184722 70.800565 70.800565 0 0 0-18.6368-1.935561 72.230149 72.230149 0 0 0-56.504721 31.099483A20.417757 20.417757 0 0 0 286.72 634.88v40.96a20.48 20.48 0 0 0 40.96 0z m-81.92 10.24v-36.219482a69.872941 69.872941 0 0 0-10.199843 35.890196 71.324612 71.324612 0 0 0 2.007843 16.610886 20.353506 20.353506 0 0 0 8.192-16.2816z" fill="#CF655C" p-id="994"></path><path d="M665.6 512v-167.5264l-0.214839-3.594039a20.407718 20.407718 0 0 0-10.025161 17.520439 20.48 20.48 0 1 0-40.96 0 20.48 20.48 0 1 0-40.96 0v-30.72a20.48 20.48 0 1 0-40.96 0v30.72a20.48 20.48 0 1 0-40.96 0v-30.72a20.251106 20.251106 0 0 0-4.417255-12.553035l-36.189365 8.958996-0.357396 3.594039V409.6a20.48 20.48 0 1 0-40.96 0v-51.2a20.494055 20.494055 0 0 0-16.301678-20.050322l-11.418604 2.825036a57.09302 57.09302 0 0 0-6.645961 2.2528 20.367561 20.367561 0 0 0-6.595765 14.970478v51.2a20.335435 20.335435 0 0 0-30.248156-17.899921c-0.164643 1.730761-0.439718 3.441443-0.439718 5.220392V512h40.96l0.010039-25.8048a28.822588 28.822588 0 0 1 21.995922-27.90902l187.504439-46.437396a29.097663 29.097663 0 0 1 36.239561 28.015436V512z" fill="#D1746D" p-id="995"></path><path d="M358.42811 386.682478v208.012549a11.492894 11.492894 0 0 1-14.099075 11.213804 70.794541 70.794541 0 0 0-18.6368-1.93556c-38.040596 1.064157-69.619953 33.852235-69.652078 71.535435-0.040157 39.249318 32.071278 72.346604 71.68 72.346604a73.027263 73.027263 0 0 0 71.649882-61.777318l0.030118-210.1248a28.822588 28.822588 0 0 1 21.995921-27.909019l187.50444-46.437397a29.097663 29.097663 0 0 1 36.229521 28.005397v93.4912a11.52502 11.52502 0 0 1-14.141239 11.243921 71.445082 71.445082 0 0 0-18.596643-1.925521c-38.042604 1.064157-69.621961 34.805961-69.672157 72.4992a71.334651 71.334651 0 0 0 71.68 71.0656 72.884706 72.884706 0 0 0 71.68-61.602636V334.239624c0-37.355922-35.440439-64.769004-72.017318-55.7056l-211.702964 52.412737a57.5488 57.5488 0 0 0-43.931608 55.735717z" fill="#F4F0D3" p-id="996"></path></svg>