<?xml version="1.0" standalone="no"?><!DOCTYPE svg PUBLIC "-//W3C//DTD SVG 1.1//EN" "http://www.w3.org/Graphics/SVG/1.1/DTD/svg11.dtd"><svg t="1626678205417" class="icon" viewBox="0 0 1024 1024" version="1.1" xmlns="http://www.w3.org/2000/svg" p-id="13349" xmlns:xlink="http://www.w3.org/1999/xlink" width="200" height="200"><defs><style type="text/css"></style></defs><path d="M286 462.9c0.1-1.7 0.1-3.4 0.2-5.1 0-1 0.1-2 0.2-3.1 0.1-1.5 0.2-3 0.3-4.6 0.1-1.1 0.2-2.2 0.3-3.2 0.1-1.4 0.2-2.9 0.4-4.3 0.1-1.1 0.2-2.2 0.4-3.3 0.1-1.4 0.3-2.8 0.5-4.2 0.1-1.1 0.3-2.3 0.4-3.4 0.2-1.4 0.4-2.8 0.6-4.1 0.2-1.1 0.3-2.3 0.5-3.4 0.2-1.4 0.4-2.7 0.6-4.1 0.2-1.1 0.4-2.3 0.6-3.4 0.2-1.3 0.5-2.7 0.7-4 0.2-1.1 0.4-2.3 0.7-3.4 0.3-1.3 0.5-2.7 0.8-4 0.2-1.1 0.5-2.3 0.7-3.4l0.9-3.9c0.3-1.1 0.5-2.3 0.8-3.4 0.3-1.3 0.7-2.6 1-3.9 0.3-1.1 0.6-2.3 0.9-3.4 0.4-1.3 0.7-2.6 1.1-3.9 0.3-1.1 0.6-2.2 1-3.3l1.2-3.9c0.3-1.1 0.7-2.2 1-3.3 0.4-1.3 0.8-2.6 1.3-3.9 0.4-1.1 0.7-2.2 1.1-3.2 0.4-1.3 0.9-2.6 1.4-3.9 0.4-1.1 0.7-2.1 1.1-3.2 0.6-1.8 1.3-3.5 2-5.3 0.2-0.4 0.3-0.8 0.5-1.2 0.8-2.2 1.7-4.4 2.6-6.5 0.3-0.6 0.5-1.2 0.8-1.8 0.7-1.6 1.3-3.1 2-4.7 0.3-0.8 0.7-1.5 1-2.3 0.6-1.4 1.3-2.8 1.9-4.2 0.4-0.8 0.7-1.5 1.1-2.3 0.7-1.5 1.4-3 2.1-4.4 0.3-0.6 0.6-1.3 0.9-1.9 1-2.1 2.1-4.2 3.2-6.3 0.1-0.2 0.2-0.3 0.3-0.5 1-1.9 2-3.9 3.1-5.8 0.3-0.5 0.5-1 0.8-1.4l2.7-4.8c0.3-0.5 0.5-1 0.8-1.4 1.1-1.9 2.2-3.9 3.4-5.8 0.2-0.4 0.4-0.7 0.7-1.1l3-4.8c0.3-0.5 0.6-1 1-1.5l3.6-5.7c0.1-0.1 0.2-0.2 0.2-0.4 1.2-1.8 2.3-3.5 3.5-5.3 0.3-0.5 0.7-1 1-1.5 0.7-1 1.3-1.9 2-2.9 1.3-1.8 2.5-3.5 3.8-5.3 0.5-0.7 1.1-1.5 1.6-2.2 1.7-2.3 3.5-4.6 5.3-6.9l0.2-0.2c1.8-2.3 3.7-4.6 5.6-6.9 0.6-0.7 1.1-1.4 1.7-2 1.6-1.9 3.2-3.8 4.9-5.7 0.2-0.2 0.4-0.5 0.6-0.7 1.9-2.2 3.9-4.4 5.9-6.5 0.3-0.3 0.6-0.7 0.9-1 2-2.1 3.9-4.1 6-6.2 0.3-0.4 0.7-0.7 1-1.1 2-2 4.1-4 6.1-6 0.3-0.3 0.6-0.6 1-0.9 2.1-2 4.3-4 6.4-6l2.1-1.8c0.6-0.5 1.2-1.1 1.8-1.6 0.7-0.6 1.5-1.3 2.2-1.9l1.8-1.5c0.8-0.7 1.6-1.3 2.3-2 0.6-0.5 1.2-1 1.7-1.4 0.8-0.7 1.6-1.3 2.5-2 0.6-0.4 1.1-0.9 1.7-1.4l2.7-2.1 1.5-1.2c1.2-0.9 2.4-1.8 3.5-2.7 0.2-0.2 0.5-0.4 0.7-0.5 1.4-1 2.8-2.1 4.3-3.1 0.4-0.3 0.9-0.6 1.3-0.9l3-2.1c1.6-1.1 3.3-2.2 4.9-3.3 0.5-0.3 1-0.6 1.5-1 1.2-0.8 2.3-1.5 3.5-2.3l1.8-1.2c1.1-0.7 2.2-1.4 3.3-2 0.6-0.4 1.3-0.8 1.9-1.1 1.1-0.7 2.3-1.4 3.4-2 0.6-0.3 1.1-0.7 1.7-1 1.5-0.9 3-1.7 4.5-2.5 0.2-0.1 0.4-0.2 0.7-0.4 1.7-0.9 3.5-1.9 5.2-2.8 0.5-0.3 1-0.5 1.6-0.8 1.2-0.6 2.5-1.3 3.7-1.9 0.6-0.3 1.3-0.6 1.9-1 1.1-0.6 2.3-1.1 3.4-1.7 0.7-0.3 1.4-0.7 2.1-1 0.8-0.4 1.6-0.7 2.3-1.1 0.8-0.4 1.6-0.7 2.4-1.1 0.8-0.3 1.6-0.7 2.4-1 0.8-0.4 1.6-0.7 2.5-1.1 0.8-0.3 1.6-0.7 2.4-1 0.8-0.3 1.7-0.7 2.5-1l2.4-0.9c0.8-0.3 1.7-0.6 2.5-1l2.4-0.9c0.8-0.3 1.7-0.6 2.5-0.9l2.4-0.9c0.8-0.3 1.7-0.6 2.5-0.9 0.8-0.3 1.5-0.5 2.3-0.8 1.1-0.4 2.3-0.7 3.4-1.1 0.7-0.2 1.4-0.4 2-0.6 1.3-0.4 2.5-0.8 3.8-1.1 0.5-0.2 1.1-0.3 1.6-0.5 1.8-0.5 3.6-1 5.5-1.5 0.2-0.1 0.5-0.1 0.7-0.2l4.8-1.2c0.6-0.1 1.3-0.3 1.9-0.4 1.2-0.3 2.5-0.6 3.7-0.8 0.7-0.2 1.4-0.3 2.1-0.5 1.2-0.2 2.3-0.5 3.5-0.7 0.7-0.1 1.5-0.3 2.2-0.4 1.2-0.2 2.4-0.4 3.5-0.6 0.7-0.1 1.4-0.2 2.1-0.4l3.9-0.6 2.1-0.3c1.9-0.3 3.8-0.5 5.7-0.7 0.6-0.1 1.2-0.1 1.8-0.2 1.3-0.1 2.6-0.3 3.9-0.4 0.7-0.1 1.3-0.1 2-0.2l3.9-0.3c0.6 0 1.2-0.1 1.8-0.1 1.7-0.1 3.3-0.2 5-0.3h0.6c1.8-0.1 3.7-0.1 5.5-0.2h7.4c1.2 0 2.5 0 3.7 0.1h1.8c1.5 0 3 0.1 4.5 0.2h0.9c1.8 0.1 3.6 0.2 5.4 0.4 0.5 0 1 0.1 1.5 0.1 1.3 0.1 2.6 0.2 3.9 0.4 0.6 0.1 1.2 0.1 1.9 0.2 1.2 0.1 2.4 0.3 3.6 0.4 0.6 0.1 1.2 0.1 1.8 0.2 1.4 0.2 2.8 0.4 4.1 0.6 0.4 0.1 0.8 0.1 1.1 0.2 1.7 0.3 3.5 0.6 5.2 0.9 0.4 0.1 0.9 0.2 1.3 0.2 1.3 0.2 2.6 0.5 3.9 0.7 0.6 0.1 1.2 0.2 1.8 0.4 1.2 0.2 2.3 0.5 3.5 0.8 0.6 0.1 1.2 0.3 1.8 0.4 1.3 0.3 2.5 0.6 3.8 0.9 0.4 0.1 0.8 0.2 1.3 0.3 1.7 0.4 3.4 0.9 5.1 1.4 0.4 0.1 0.8 0.2 1.2 0.4l3.9 1.2c0.6 0.2 1.1 0.4 1.7 0.5 1.2 0.4 2.3 0.8 3.5 1.1 0.5 0.2 1.1 0.4 1.6 0.5 1.4 0.5 2.9 1 4.3 1.5 0.2 0.1 0.4 0.1 0.6 0.2 1.6 0.6 3.2 1.2 4.9 1.9 0.5 0.2 0.9 0.4 1.4 0.6 1.2 0.5 2.3 0.9 3.5 1.4 0.5 0.2 1.1 0.5 1.6 0.7 1.1 0.5 2.3 1 3.4 1.5 0.5 0.2 0.9 0.4 1.4 0.6 1.6 0.7 3.1 1.5 4.7 2.2 0.4 0.2 0.9 0.4 1.3 0.7 0.9 0.5 1.9 0.9 2.8 1.4 0.5 0.3 1.1 0.6 1.6 0.8 0.9 0.5 1.8 0.9 2.7 1.4L612.8 117h-0.1l-0.4-0.2c-0.7-0.4-1.5-0.8-2.2-1.2-0.5-0.3-1.1-0.6-1.6-0.8-0.9-0.5-1.9-0.9-2.8-1.4l-1.2-0.6h-0.1c-1.5-0.8-3.1-1.5-4.7-2.2-0.5-0.2-0.9-0.4-1.4-0.6-1.1-0.5-2.3-1-3.4-1.5-0.5-0.2-1.1-0.5-1.6-0.7-1.1-0.5-2.3-1-3.5-1.4-0.5-0.2-0.9-0.4-1.4-0.6-1.6-0.6-3.2-1.3-4.9-1.9-0.2-0.1-0.4-0.1-0.6-0.2-1.4-0.5-2.9-1-4.3-1.5-0.5-0.2-1.1-0.4-1.6-0.5-1.2-0.4-2.3-0.8-3.5-1.1-0.6-0.2-1.1-0.4-1.7-0.5l-3.9-1.2c-0.4-0.1-0.8-0.2-1.2-0.4-1.7-0.5-3.4-0.9-5.1-1.4-0.1 0-0.2 0-0.3-0.1-0.3-0.1-0.7-0.2-1-0.2-1.3-0.3-2.5-0.6-3.8-0.9-0.6-0.1-1.2-0.3-1.8-0.4-1.2-0.3-2.3-0.5-3.5-0.8-0.6-0.1-1.2-0.2-1.8-0.4-1.3-0.3-2.6-0.5-3.9-0.7-0.4-0.1-0.9-0.2-1.3-0.2-1.7-0.3-3.5-0.6-5.2-0.9-0.4-0.1-0.8-0.1-1.1-0.2-1.4-0.2-2.7-0.4-4.1-0.6-0.6-0.1-1.2-0.2-1.8-0.2-1.2-0.1-2.4-0.3-3.6-0.4-0.6-0.1-1.2-0.1-1.9-0.2-1.3-0.1-2.6-0.2-3.9-0.4-0.5 0-1-0.1-1.5-0.1-1.8-0.1-3.6-0.3-5.4-0.4h-0.9c-1.5-0.1-3-0.1-4.5-0.2h-1.8c-1.2 0-2.5-0.1-3.7-0.1h-7.4c-1.8 0-3.7 0.1-5.5 0.2h-0.6c-1.7 0.1-3.3 0.2-5 0.3-0.6 0-1.2 0.1-1.8 0.1l-3.9 0.3c-0.7 0.1-1.3 0.1-2 0.2-1.3 0.1-2.6 0.3-3.9 0.4-0.6 0.1-1.2 0.1-1.8 0.2-1.9 0.2-3.8 0.5-5.7 0.7-0.2 0-0.5 0.1-0.7 0.1-0.5 0.1-0.9 0.1-1.4 0.2l-3.9 0.6c-0.7 0.1-1.4 0.2-2.1 0.4-1.2 0.2-2.4 0.4-3.5 0.6-0.7 0.1-1.5 0.3-2.2 0.4-1.2 0.2-2.3 0.5-3.5 0.7-0.7 0.1-1.4 0.3-2.1 0.5-1.2 0.3-2.4 0.5-3.7 0.8-0.6 0.1-1.3 0.3-1.9 0.4l-4.8 1.2c-0.2 0.1-0.5 0.1-0.7 0.2-1.8 0.5-3.7 1-5.5 1.5-0.6 0.2-1.1 0.3-1.6 0.5-1.3 0.4-2.5 0.7-3.8 1.1-0.7 0.2-1.4 0.4-2 0.6-1.1 0.4-2.3 0.7-3.4 1.1-0.3 0.1-0.7 0.2-1 0.3-0.4 0.1-0.9 0.3-1.3 0.4-0.8 0.3-1.7 0.6-2.5 0.9l-2.4 0.9c-0.8 0.3-1.7 0.6-2.5 0.9l-2.4 0.9c-0.8 0.3-1.7 0.6-2.5 1l-2.4 0.9c-0.8 0.3-1.7 0.7-2.5 1-0.8 0.3-1.6 0.7-2.4 1-0.8 0.3-1.6 0.7-2.5 1.1-0.8 0.3-1.6 0.7-2.4 1-0.8 0.4-1.6 0.7-2.4 1.1-0.8 0.4-1.6 0.7-2.3 1.1-0.3 0.2-0.7 0.3-1 0.5-0.4 0.2-0.7 0.4-1.1 0.5-1.2 0.5-2.3 1.1-3.5 1.7-0.6 0.3-1.3 0.6-1.9 0.9-1.2 0.6-2.5 1.3-3.7 1.9-0.5 0.3-1 0.5-1.6 0.8-1.7 0.9-3.5 1.8-5.2 2.8-0.2 0.1-0.4 0.2-0.7 0.4-1.5 0.8-3 1.7-4.5 2.5-0.6 0.3-1.1 0.7-1.7 1-1.1 0.7-2.3 1.3-3.4 2-0.6 0.4-1.3 0.8-1.9 1.1-1.1 0.7-2.2 1.3-3.3 2l-1.8 1.2c-1.2 0.7-2.3 1.5-3.5 2.3-0.5 0.3-1 0.6-1.5 1-1.6 1.1-3.3 2.2-4.9 3.3 0 0-0.1 0-0.1 0.1-1 0.7-1.9 1.4-2.9 2-0.4 0.3-0.9 0.6-1.3 0.9-1.4 1-2.9 2.1-4.3 3.1-0.2 0.2-0.5 0.3-0.7 0.5-1.2 0.9-2.4 1.8-3.5 2.7l-1.5 1.2-2.7 2.1c-0.6 0.4-1.1 0.9-1.7 1.4-0.8 0.7-1.6 1.3-2.4 2l-1.8 1.5c-0.8 0.6-1.5 1.3-2.3 1.9l-1.8 1.5c-0.7 0.6-1.5 1.3-2.2 1.9-0.6 0.5-1.2 1.1-1.8 1.6-0.6 0.6-1.3 1.1-1.9 1.7l-0.2 0.2c-2.2 2-4.3 3.9-6.4 6-0.3 0.3-0.6 0.6-1 0.9-2.1 2-4.1 4-6.1 6-0.3 0.4-0.7 0.7-1 1.1-2 2-4 4.1-6 6.2-0.3 0.3-0.6 0.7-0.9 1-2 2.1-4 4.3-5.9 6.5l-0.2 0.2c-0.1 0.2-0.3 0.3-0.4 0.5-0.9 1-1.7 2-2.6 3-0.8 0.9-1.5 1.8-2.3 2.7-0.6 0.7-1.1 1.4-1.7 2-1.9 2.3-3.8 4.6-5.6 6.9l-0.2 0.2c-1.8 2.3-3.5 4.6-5.3 6.9-0.5 0.7-1.1 1.5-1.6 2.2-1.3 1.7-2.6 3.5-3.8 5.3-0.3 0.5-0.7 0.9-1 1.4-0.3 0.5-0.7 1-1 1.5-0.3 0.5-0.7 1-1 1.5-1.2 1.7-2.4 3.5-3.5 5.3-0.1 0.1-0.2 0.2-0.2 0.4l-3.6 5.7c-0.3 0.5-0.6 1-1 1.5l-3 4.8c-0.2 0.4-0.4 0.7-0.7 1.1-1.1 1.9-2.3 3.8-3.4 5.8-0.3 0.5-0.5 1-0.8 1.4l-2.7 4.8c-0.3 0.5-0.5 1-0.8 1.4-0.1 0.3-0.3 0.5-0.4 0.8-0.9 1.7-1.8 3.3-2.6 5-0.1 0.2-0.2 0.3-0.3 0.5-1.1 2.1-2.1 4.2-3.2 6.3-0.3 0.6-0.6 1.3-0.9 1.9-0.7 1.5-1.4 3-2.1 4.4-0.4 0.8-0.7 1.5-1.1 2.3-0.6 1.4-1.3 2.8-1.9 4.2-0.3 0.8-0.7 1.5-1 2.3-0.7 1.6-1.3 3.1-2 4.7-0.3 0.6-0.5 1.2-0.8 1.8-0.9 2.2-1.8 4.4-2.6 6.5-0.2 0.4-0.3 0.8-0.5 1.2-0.6 1.5-1.1 3-1.7 4.4l-0.3 0.9c-0.4 1.1-0.8 2.1-1.1 3.2-0.5 1.3-0.9 2.6-1.4 3.9-0.4 1.1-0.7 2.2-1.1 3.2-0.4 1.3-0.8 2.6-1.3 3.9-0.3 1.1-0.7 2.2-1 3.3l-1.2 3.9c-0.3 1.1-0.6 2.2-1 3.3-0.4 1.3-0.7 2.6-1.1 3.9-0.3 1.1-0.6 2.2-0.9 3.4-0.3 1.3-0.7 2.6-1 3.9-0.3 1.1-0.6 2.3-0.8 3.4l-0.9 3.9c-0.3 1.1-0.5 2.3-0.7 3.4-0.3 1.3-0.5 2.6-0.8 4-0.2 1.1-0.5 2.3-0.7 3.4-0.3 1.3-0.5 2.7-0.7 4-0.2 1.1-0.4 2.3-0.6 3.4-0.2 1.4-0.4 2.7-0.6 4.1-0.2 1.1-0.4 2.3-0.5 3.4-0.2 1.4-0.4 2.8-0.6 4.1-0.1 1.1-0.3 2.3-0.4 3.4-0.2 1.4-0.3 2.8-0.5 4.2-0.1 1.1-0.2 2.2-0.4 3.3-0.1 1.4-0.3 2.9-0.4 4.3-0.1 1.1-0.2 2.2-0.3 3.2-0.1 1.5-0.2 3-0.3 4.6-0.1 1-0.1 2-0.2 3.1-0.1 1.7-0.1 3.4-0.2 5.1 0 0.9-0.1 1.7-0.1 2.6-0.1 2.6-0.1 5.1-0.1 7.7-0.1 42.6 8.2 81.8 23.3 116.2 6 13.8 13.1 26.7 21.1 38.8 7.9 11.8 16.7 22.8 26.3 32.9 2 2.1 4.1 4.2 6.2 6.2 0.5 0.5 1 0.9 1.5 1.4 0.6 0.5 1.1 1.1 1.7 1.6 0.5 0.4 1 0.9 1.4 1.3 0.6 0.6 1.2 1.1 1.8 1.7 0.5 0.4 1 0.9 1.5 1.3 0.6 0.5 1.2 1.1 1.8 1.6l1.5 1.2c0.6 0.5 1.2 1.1 1.9 1.6 0.5 0.4 1.1 0.9 1.6 1.3 0.6 0.5 1.2 1 1.8 1.4 0.6 0.4 1.1 0.9 1.7 1.3 0.6 0.5 1.2 0.9 1.7 1.4 0.6 0.5 1.2 0.9 1.8 1.4 0.6 0.4 1.1 0.9 1.7 1.3 0.6 0.5 1.3 0.9 1.9 1.4 0.6 0.4 1.1 0.8 1.7 1.2l1.8 1.2c0.6 0.4 1.2 0.8 1.8 1.3 0.6 0.4 1.3 0.8 1.9 1.2l1.8 1.2c0.7 0.4 1.3 0.8 2 1.3 0.6 0.4 1.1 0.7 1.7 1.1 0.6 0.4 1.3 0.8 1.9 1.2 0.6 0.4 1.2 0.7 1.8 1.1 0.7 0.4 1.4 0.8 2 1.2 0.6 0.3 1.2 0.7 1.7 1 0.7 0.4 1.4 0.8 2 1.1 0.6 0.3 1.2 0.7 1.7 1h0.1l63.7 34.6 27.5 14.9h0.1c-0.7-0.4-1.3-0.7-1.9-1.1-0.6-0.4-1.3-0.7-1.9-1.1-0.6-0.4-1.3-0.7-1.9-1.1-0.6-0.4-1.3-0.7-1.9-1.1-0.7-0.4-1.3-0.8-1.9-1.2-0.6-0.4-1.2-0.7-1.8-1.1l-1.8-1.2-1.8-1.2c-0.6-0.4-1.2-0.8-1.9-1.2l-1.8-1.2c-0.6-0.4-1.2-0.8-1.8-1.3l-1.8-1.2c-0.6-0.4-1.1-0.8-1.7-1.2-0.6-0.5-1.3-0.9-1.9-1.4-0.6-0.4-1.1-0.8-1.7-1.3-0.6-0.5-1.2-0.9-1.8-1.4-0.6-0.4-1.2-0.9-1.7-1.4-0.6-0.4-1.1-0.9-1.7-1.3-0.6-0.5-1.2-1-1.8-1.4-0.5-0.4-1.1-0.9-1.6-1.3-0.6-0.5-1.3-1.1-1.9-1.6l-1.5-1.2c-0.6-0.5-1.2-1-1.8-1.6-0.5-0.4-1-0.9-1.5-1.3-0.6-0.5-1.2-1.1-1.8-1.7-0.5-0.4-1-0.9-1.4-1.3-0.6-0.5-1.1-1.1-1.7-1.6-0.5-0.5-1-0.9-1.5-1.4-2.1-2-4.2-4.1-6.2-6.2-9.6-10-18.4-21-26.3-32.9-8.1-12.1-15.1-25.1-21.1-38.8-15-34.4-23.4-73.7-23.3-116.2 0-2.6 0-5.1 0.1-7.7-0.1-0.7 0-1.5 0-2.4z" fill="#FFA300" p-id="13350"></path><path d="M709.9 910.6L618.7 861l-0.2-0.4 91.2 49.6z" fill="#7A521A" p-id="13351"></path><path d="M709.7 910.2l-91.2-49.6 21.4-43.6 91.2 49.6z" fill="#8E5F1E" p-id="13352"></path><path d="M731.1 866.6L639.9 817l11.4-23.6 91.2 49.6z" fill="#8E5F1E" p-id="13353"></path><path d="M731.1 866.5l-91.2-49.6 11.4-23.5 91.2 49.6z" fill="#2F8677" p-id="13354"></path><path d="M742.5 843l-91.2-49.6 11.5-23.4 91.1 49.6z" fill="#8E5F1E" p-id="13355"></path><path d="M753.9 819.6L662.8 770l28.4-58.7 91.2 49.6z" fill="#8E5F1E" p-id="13356"></path><path d="M679 680.3c30-20.5 56.9-46.3 79.3-75.9l82 152.4-57.7 4.1-28.7 58.6L679 680.3z" fill="#50E6CC" p-id="13357"></path><path d="M753.9 819.6l28.5-58.7-72.5 149.7-0.2-0.4 21.4-43.6 11.4-23.6z" fill="#D48E2D" p-id="13358"></path><path d="M930.5 750.3l-42.9 3.2h-1L784.8 564c8.1-14.4 15.2-29.4 21.3-44.8l124.4 231.1z" fill="#50E6CC" p-id="13359"></path><path d="M784.8 564l101.9 189.4-46.3 3.3-82-152.4c9.6-12.7 18.4-26.2 26.4-40.3zM679 680.3l74.9 139.2-11.4 23.5-11.4 23.5-88.7-164.7c12.6-6.3 24.8-13.5 36.6-21.5z" fill="#00B794" p-id="13360"></path><path d="M709.4 910.8l-91.1-49.6L514 667.5l91.2 49.6z" fill="#007982" p-id="13361"></path><path d="M642.4 701.8l88.7 164.7 11.4-23.5-11.4 23.6-21.3 43.7-0.3 0.6-104.3-193.8c12.7-4.2 25.1-9.4 37.2-15.3z" fill="#50E6CC" p-id="13362"></path><path d="M383.5 916.6L292.3 867l-0.6-1.1 91.2 49.6z" fill="#287366" p-id="13363"></path><path d="M382.9 915.4l-91.2-49.6-11.3-20.3 91.2 49.6z" fill="#005C4A" p-id="13364"></path><path d="M472.3 725.7c12.1 2.6 24.5 4.2 37.3 4.9l-105 223-21-37.1-0.6-1.1-11.3-20.4 11.3 20.3 89.3-189.6z" fill="#50E6CC" p-id="13365"></path><path d="M435.7 714.6c11.7 4.7 23.9 8.4 36.6 11.1l-89.4 189.7-11.3-20.3-11.3-20.3 75.4-160.2z" fill="#00B794" p-id="13366"></path><path d="M360.3 874.9l-91.1-49.6L344.5 665l91.2 49.6z" fill="#006A56" p-id="13367"></path><path d="M411.9 703.5l-91.2-49.6c2.7 1.5 5.4 2.9 8.1 4.2l91.2 49.6-8.1-4.2" fill="#328F7E" p-id="13368"></path><path d="M420.1 707.6L328.9 658c5.1 2.5 10.3 4.8 15.6 7l91.2 49.6c-5.3-2.1-10.5-4.4-15.6-7" fill="#339383" p-id="13369"></path><path d="M371.6 895.1l-11.3-20.2 0.1-0.1-28.5-50.6-91.2-49.6 28.5 50.6v0.1l11.2 20.2 11.3 20.4 0.6 1.1 21 37.1 91.2 49.6-21-37.1-0.6-1.1-11.3-20.4z" fill="#007982" p-id="13370"></path><path d="M356.6 661c22.4 23.3 49.2 41.6 79.1 53.6l-75.3 160.2-28.5-50.6-58 12.2L356.6 661z" fill="#50E6CC" p-id="13371"></path><path d="M273.9 836.4l-91.1-49.6 82.6-175.4 91.2 49.6z" fill="#2F8677" p-id="13372"></path><path d="M227.6 846.1l-91.1-49.6 102.6-217.9 91.1 49.6z" fill="#006A56" p-id="13373"></path><path d="M330.2 628.2c7.9 11.8 16.7 22.8 26.3 32.9l-82.6 175.4-46.3 9.7 102.6-218zM183.9 855.4l-91.1-49.6 125.1-266 91.2 49.6z" fill="#00B794" p-id="13374"></path><path d="M309.1 589.4c6 13.8 13.1 26.7 21.1 38.8L227.6 846.1l-43.7 9.3 125.2-266z" fill="#50E6CC" p-id="13375"></path><path d="M596 309.1l-0.5 263.8-59.3 8.3 0.4-211.4-40.5 5.7 3.6-52.9z" fill="#D30032" p-id="13376"></path><path d="M558.2 190c125.5-17.6 226.6 78 226.3 213.1-0.3 135.1-101.9 259-227.2 276.6-125.3 17.6-226.6-78-226.3-213.1 0.2-135.1 101.9-259 227.2-276.6z m-0.8 436.7c98.1-13.8 178.1-110.6 178.3-216.8 0.2-106.2-79.5-180.8-177.6-167-98.4 13.8-178.1 110.6-178.3 216.7s79.5 180.9 177.6 167.1" fill="#FFA300" p-id="13377"></path><path d="M558.3 141.5c150.2-21.1 271.7 93.2 271.4 255.3-0.1 42.3-8.4 83.7-23.4 122.1-6.2 15.9-13.3 30.8-21.4 45.2-7.9 14.1-16.8 27.6-26.4 40.4-22.6 29.5-49.5 55.4-79.5 75.8-11.7 8-24 15.2-36.6 21.5-12.1 6-24.5 11.1-37.2 15.4-15.6 5.2-31.6 9-48 11.3-16.3 2.3-32.2 3-47.6 2.2-12.7-0.6-25.2-2.3-37.3-4.9-12.6-2.7-24.8-6.4-36.6-11.1-30-12-56.8-30.3-79.1-53.6-9.6-10-18.4-21-26.3-32.9-8.1-12.1-15.1-25.1-21.1-38.8-15-34.4-23.4-73.7-23.3-116.2 0.2-162.1 122.2-310.6 272.4-331.7z m-1 538.2c125.3-17.6 227-141.6 227.2-276.6S683.7 172.3 558.2 190c-125.3 17.6-227 141.6-227.2 276.6-0.3 135.1 100.9 230.7 226.3 213.1" fill="#FDF17F" p-id="13378"></path><path d="M558.1 242.9c98.1-13.8 177.8 60.9 177.6 167-0.2 106.2-80.2 203-178.3 216.8-98.1 13.8-177.8-60.9-177.6-167s79.9-203 178.3-216.8z m37.4 330l0.6-263.8-96.3 13.5-3.7 52.9 40.5-5.7-0.4 211.4 59.3-8.3" fill="#FDF17F" p-id="13379"></path></svg>